<svg xmlns="http://www.w3.org/2000/svg" width="1in" height="1in" viewBox="0 0 72 72">
  <g>
    <path d="M36.405,60.342a24.342,24.342,0,0,0,0-48.684" fill="none" stroke="#231f20" stroke-miterlimit="10" stroke-width="3"/>
    <polygon points="30.899 60.073 36.718 63.79 36.884 56.628 30.899 60.073" fill="#231f20" stroke="#231f20" stroke-miterlimit="10" stroke-width="3"/>
    <g>
      <path d="M23.284,29.913H23.23l-3.049,1.646-.459-1.808L23.555,27.7h2.024V45.245h-2.3Z" fill="#231f20"/>
      <path d="M28.389,40.791c0-2.213,1.322-3.779,3.481-4.7l-.026-.081a4.346,4.346,0,0,1-2.781-3.941c0-2.78,2.348-4.67,5.425-4.67,3.4,0,5.1,2.133,5.1,4.319a4.459,4.459,0,0,1-2.889,4.1v.081c2.187.864,3.536,2.4,3.536,4.535,0,3.05-2.618,5.1-5.966,5.1C30.6,45.542,28.389,43.355,28.389,40.791Zm9.447-.108c0-2.133-1.484-3.158-3.86-3.833-2.051.594-3.159,1.943-3.159,3.617a3.245,3.245,0,0,0,3.51,3.347C36.459,43.814,37.836,42.491,37.836,40.683ZM31.3,31.91c0,1.755,1.322,2.7,3.346,3.239a3.457,3.457,0,0,0,2.673-3.185A2.727,2.727,0,0,0,34.354,29.1,2.79,2.79,0,0,0,31.3,31.91Z" fill="#231f20"/>
      <path d="M53.441,36.283c0,5.966-2.213,9.259-6.1,9.259-3.429,0-5.75-3.212-5.8-9.016,0-5.884,2.537-9.124,6.1-9.124C51.336,27.4,53.441,30.7,53.441,36.283Zm-9.529.27c0,4.562,1.4,7.153,3.564,7.153,2.429,0,3.589-2.834,3.589-7.315,0-4.319-1.106-7.153-3.562-7.153C45.424,29.238,43.912,31.775,43.912,36.553Z" fill="#231f20"/>
    </g>
  </g>
</svg>
