<svg xmlns="http://www.w3.org/2000/svg" width="1in" height="1in" viewBox="0 0 72 72">
  <g>
    <path d="M59.819,36A24.342,24.342,0,0,0,35.477,11.658" fill="none" stroke="#231f20" stroke-miterlimit="10" stroke-width="3"/>
    <polygon points="59.853 42.208 63.403 36.285 56.239 36.323 59.853 42.208" fill="#231f20" stroke="#231f20" stroke-miterlimit="10" stroke-width="3"/>
    <polygon points="59.853 42.208 63.403 36.285 56.239 36.323 59.853 42.208" fill="#231f20" stroke="#231f20" stroke-miterlimit="10" stroke-width="3"/>
    <g>
      <path d="M24.493,42.869a9.544,9.544,0,0,0,1.846-.078,6.375,6.375,0,0,0,3.536-1.638,7.411,7.411,0,0,0,2.236-4.5h-.078a4.958,4.958,0,0,1-3.977,1.82A4.9,4.9,0,0,1,23.063,33.3a5.8,5.8,0,0,1,5.772-6.007c3.459,0,5.591,2.809,5.591,7.124,0,3.719-1.248,6.319-2.912,7.931A8.452,8.452,0,0,1,26.6,44.611a10.665,10.665,0,0,1-2.107.13Zm.832-9.724c0,2.1,1.275,3.587,3.25,3.587A3.78,3.78,0,0,0,31.9,34.965a1.51,1.51,0,0,0,.208-.832c0-2.886-1.065-5.1-3.458-5.1C26.7,29.036,25.325,30.752,25.325,33.145Z" fill="#231f20"/>
      <path d="M47.737,35.849c0,5.746-2.132,8.918-5.876,8.918-3.3,0-5.538-3.094-5.59-8.684,0-5.668,2.444-8.789,5.876-8.789C45.709,27.294,47.737,30.466,47.737,35.849Zm-9.177.259c0,4.4,1.351,6.891,3.431,6.891,2.34,0,3.458-2.73,3.458-7.046,0-4.161-1.065-6.89-3.431-6.89C40.015,29.063,38.56,31.506,38.56,36.108Z" fill="#231f20"/>
    </g>
  </g>
</svg>
